<svg width="376" height="148" xmlns="http://www.w3.org/2000/svg">
 <!-- Generator: Sketch 3.5.2 (25235) - http://www.bohemiancoding.com/sketch -->
 <title>dirt</title>
 <desc>Created with Sketch.</desc>

 <g>
  <title>background</title>
  <rect fill="none" id="canvas_background" height="402" width="582" y="-1" x="-1"/>
 </g>
 <g>
  <title>Layer 1</title>
  <path fill="#ffd4aa" id="Shape" d="m273.21875,0.28769c-4.04683,0 -7.74726,1.27237 -10.625,3.40625c-2.33336,-1.11106 -5.00896,-1.75 -7.84375,-1.75c-9.15283,0 -16.5625,6.58145 -16.5625,14.6875c0,1.58843 0.28547,3.12984 0.8125,4.5625c-2.58211,2.58811 -4.15625,5.96229 -4.15625,9.6875c0,1.25987 0.19413,2.48944 0.53125,3.65625c-1.48403,0.42672 -2.8576,1.02293 -4.125,1.78125c-2.4716,1.13069 -4.60458,2.75404 -6.15625,4.78125c-0.003,0.001 0.003,0.03 0,0.0312c-1.54518,0.57907 -3.00061,1.22081 -4.375,1.9375c-2.61841,-6.06157 -7.61591,-10.45923 -13.5625,-11.5c-3.07952,-2.77888 -6.90652,-4.4375 -11.09375,-4.4375c-3.95784,0 -7.63485,1.46024 -10.625,3.96875c-2.77159,-1.98968 -6.01159,-3.15625 -9.5,-3.15625c-9.50318,0 -17.29495,8.53327 -18.15625,19.40625c-1.68777,-0.60376 -3.48739,-0.9375 -5.34375,-0.9375c-5.60453,0 -10.62099,2.96561 -13.96875,7.625c-0.9241,-0.0458 -1.86934,-0.0937 -2.8125,-0.0937c-2.94047,0 -5.7741,0.22965 -8.5,0.65625c-3.15352,-6.40165 -9.0516,-10.71875 -15.8125,-10.71875c-7.67088,0 -14.2379,5.54914 -16.9375,13.40625c-2.86982,-7.4025 -9.20355,-12.5625 -16.59375,-12.5625c-5.57477,0 -10.55869,2.94582 -13.90625,7.5625c-2.17664,-1.07433 -4.55243,-1.6875 -7.0625,-1.6875c-7.53781,0 -14.02874,5.35895 -16.8125,13c-2.7026,-1.85391 -5.82982,-2.9375 -9.1875,-2.9375c-6.77313,0 -12.6945,4.32919 -15.84375,10.75c-1.3128,-0.67385 -2.78754,-1.0625 -4.3125,-1.0625c-5.90852,0 -10.6875,5.60716 -10.6875,12.53125c0,6.92409 4.77898,12.53125 10.6875,12.53125c1.79334,0 3.51543,-0.49235 5,-1.40625c0.0635,0.11019 0.15353,0.20378 0.21875,0.3125c1.40015,4.0233 4.5337,6.99262 8.3125,7.65625c2.05131,0.93549 4.29136,1.46875 6.625,1.46875c3.28048,0 6.33974,-1.0369 9,-2.8125c1.28832,5.22877 5.40451,9.0625 10.28125,9.0625c0.78267,0 1.5467,-0.0945 2.28125,-0.28125c2.31475,1.11904 4.88585,1.75 7.59375,1.75c2.29226,0 4.47629,-0.46536 6.5,-1.28125c1.88657,1.96495 4.36837,3.15625 7.09375,3.15625c3.39571,0 6.41518,-1.85868 8.375,-4.75c4.40259,7.92113 16.10892,13.73804 30.15625,14.375c1.84517,3.76812 5.30812,6.3125 9.28125,6.3125c3.56231,0 6.7118,-2.04961 8.65625,-5.1875c1.01178,1.07761 2.14711,2.11474 3.4375,3.0625c0.82912,5.95698 5.24483,10.5 10.5625,10.5c2.89527,0 5.51142,-1.34186 7.4375,-3.53125l0.28125,0.0312c1.61107,4.5337 5.4227,7.71875 9.875,7.71875c1.27856,0 2.51965,-0.26791 3.65625,-0.75c6.33358,4.34151 15.51562,7.0625 25.71875,7.0625c13.52672,0 25.21507,-4.78997 30.90625,-11.78125c0.77591,-0.033 1.5515,-0.0922 2.3125,-0.15625c2.13973,0.91781 4.50947,1.46875 7.03125,1.46875c6.91329,0 12.8271,-3.86395 15.3125,-9.34375c0.41488,-0.32129 0.80258,-0.63275 1.1875,-0.96875c0.90662,0.13994 1.8309,0.25 2.78125,0.25c1.43544,0 2.82799,-0.1875 4.15625,-0.5c1.84517,3.76812 5.30812,6.3125 9.28125,6.3125c4.31678,0 8.02793,-2.99792 9.71875,-7.3125c0.92571,0.14206 1.87218,0.21875 2.84375,0.21875c3.16177,0 6.11125,-0.79556 8.625,-2.15625c1.91303,2.10086 4.48389,3.375 7.3125,3.375c4.54044,0 8.41549,-3.32292 9.96875,-8c0.44648,0.0466 0.88797,0.0937 1.34375,0.0937c1.12321,0 2.22074,-0.16266 3.28125,-0.4375c1.7821,1.55564 3.982,2.46875 6.375,2.46875c4.41026,0 8.20677,-3.1282 9.84375,-7.59375c2.51093,1.3951 5.4687,2.1875 8.625,2.1875c6.44092,0 12.0072,-3.32982 14.75,-8.21875c1.91652,0.70539 4.02475,1.09375 6.21875,1.09375c9.15283,0 16.5625,-6.7561 16.5625,-15.09375c0,-0.98763 -0.11373,-1.94028 -0.3125,-2.875c1.27564,-2.13909 2,-4.58198 2,-7.1875c0,-4.86659 -2.54387,-9.17673 -6.46875,-11.9375c0.38109,-1.27054 0.59375,-2.61936 0.59375,-4c0,-8.33765 -7.44092,-15.09375 -16.59375,-15.09375c-0.80964,0 -1.59642,0.0853 -2.375,0.1875c0.31963,-1.1381 0.5,-2.30555 0.5,-3.53125c0,-8.10605 -7.40967,-14.6875 -16.5625,-14.6875c-0.26461,0 -0.51967,0.0204 -0.78125,0.0312c-1.84827,-3.75426 -5.31696,-6.28125 -9.28125,-6.28125c-1.54887,0 -3.01476,0.3998 -4.34375,1.09375c-4.10258,-7.02982 -13.99936,-12.33945 -26.125,-13.75c0.0168,-0.27095 0.0625,-0.53783 0.0625,-0.8125c0,-8.10605 -7.40967,-14.65625 -16.5625,-14.65625l0,0.00015zm41.71875,54.6875c0.61799,1.31784 1.46677,2.53406 2.46875,3.625c-0.91983,-0.1218 -1.86714,-0.20563 -2.8125,-0.28125c0.24469,-1.00338 0.34375,-2.02554 0.34375,-3.09375c0,-0.0843 0.002,-0.16605 0,-0.25l0,0zm-36.5625,2.96875c1.22782,0.10758 2.48424,0.16176 3.75,0.1875c0.16029,0.70128 0.41869,1.37012 0.6875,2.03125c-1.42946,-0.69232 -2.96509,-1.29531 -4.5625,-1.84375c0.0394,-0.12481 0.0892,-0.24887 0.125,-0.375l0,0z"/>
  <path fill="#e5b685" id="Shape" d="m273.64174,0.38599c-4.04683,0 -7.74726,1.27237 -10.625,3.40625c-2.33336,-1.11106 -5.00896,-1.75 -7.84375,-1.75c-1.39619,0 -2.7363,0.18041 -4.03125,0.46875c2.92477,2.22754 5.68412,4.55634 8.21875,6.9375c11.29942,1.24587 20.0625,10.25875 20.0625,21.21875c0,2.38913 -0.41888,4.69834 -1.1875,6.84375c1.64489,5.01036 2.53125,10.16503 2.53125,15.4375c0,0.02 0.00003,0.0415 0,0.0625c4.4507,3.9039 7.21875,9.4502 7.21875,15.625c0,11.7049 -10.00203,21.2352 -22.40625,21.4063c-0.37775,0.4358 -0.76566,0.8806 -1.15625,1.3124c0.96783,2.1442 1.5,4.4562 1.5,6.8438c0,11.8117 -12.8199,21.375 -28.65625,21.375c-1.40899,0 -2.80167,-0.0723 -4.15625,-0.2188c-2.43042,10.3421 -16.8423,18.2813 -34.25,18.2813c-6.07645,0 -11.7868,-0.9562 -16.75,-2.6563c-3.30934,3.8056 -8.04331,6.5863 -13.46875,7.7188c6.09457,3.3056 14.06631,5.2812 22.8125,5.2812c13.52672,0 25.21507,-4.79 30.90625,-11.7812c0.77591,-0.033 1.5515,-0.0919 2.3125,-0.1562c2.13973,0.9177 4.50947,1.4687 7.03125,1.4687c6.91329,0 12.8271,-3.8639 15.3125,-9.3437c0.41488,-0.3214 0.80258,-0.6328 1.1875,-0.9688c0.90662,0.1399 1.8309,0.25 2.78125,0.25c1.43544,0 2.82799,-0.1875 4.15625,-0.5c1.84517,3.7681 5.30812,6.3125 9.28125,6.3125c4.31678,0 8.02793,-2.998 9.71875,-7.3125c0.92571,0.142 1.87218,0.2188 2.84375,0.2188c3.16177,0 6.11125,-0.7956 8.625,-2.1563c1.91303,2.1008 4.48389,3.375 7.3125,3.375c4.54044,0 8.41549,-3.323 9.96875,-8c0.44648,0.047 0.88797,0.0937 1.34375,0.0937c1.12321,0 2.22074,-0.1626 3.28125,-0.4374c1.7821,1.5555 3.982,2.4687 6.375,2.4687c4.41026,0 8.20677,-3.1283 9.84375,-7.5937c2.51093,1.395 5.4687,2.1874 8.625,2.1874c6.44092,0 12.0072,-3.3298 14.75,-8.2187c1.91652,0.7054 4.02475,1.0937 6.21875,1.0937c9.15283,0 16.5625,-6.756 16.5625,-15.0937c0,-0.9876 -0.11373,-1.9403 -0.3125,-2.875c1.27564,-2.1391 2,-4.582 2,-7.1875c0,-4.8666 -2.54387,-9.1767 -6.46875,-11.9375c0.38109,-1.2705 0.59375,-2.6193 0.59375,-4c0,-8.3376 -7.44092,-15.0938 -16.59375,-15.0937c-0.80964,0 -1.59642,0.085 -2.375,0.1874c0.31963,-1.1381 0.5,-2.3055 0.5,-3.5312c0,-8.10604 -7.40967,-14.6875 -16.5625,-14.6875c-0.26461,0 -0.51967,0.0205 -0.78125,0.0312c-1.84827,-3.75426 -5.31696,-6.28125 -9.28125,-6.28125c-1.54887,0 -3.01476,0.3998 -4.34375,1.09375c-4.10258,-7.02982 -13.99936,-12.33945 -26.125,-13.75c0.0168,-0.27095 0.0625,-0.53783 0.0625,-0.8125c0,-8.10605 -7.40967,-14.65625 -16.5625,-14.65625l0,0.00005zm41.71875,54.6875c0.61799,1.3179 1.46677,2.5341 2.46875,3.625c-0.91983,-0.1218 -1.86714,-0.2057 -2.8125,-0.2812c0.24469,-1.0035 0.34375,-2.0256 0.34375,-3.0938c0,-0.084 0.002,-0.166 0,-0.25l0,0z"/>
 </g>
</svg>